# xmcd CD database file
#
# Track frame offsets:
#	150
#	14976
#	37668
#	53888
#	84479
#	106870
#	125872
#	146384
#	165769
#
# Disc length: 2610 seconds
#
# Revision: 0
# Processed by: cddbd v1.5.2PL0 Copyright (c) Steve Scherf et al.
# Submitted via: CDex 1.70beta2
#
DISCID=6c0a3009
DTITLE=CYTOKINE - ±
DYEAR=2008
DGENRE=東方アレンジ
TTITLE0=Mystic Square
TTITLE1=World's End
TTITLE2=The Legend of KAGE
TTITLE3=Reincarnation
TTITLE4=Alice in Wonderland
TTITLE5=The 'Alice in Wonderland' Angel
TTITLE6=Alice Maestera
TTITLE7=End of Daylight
TTITLE8=Phantasmagoria
EXTD=YEAR: 2008
EXTT0=
EXTT1=
EXTT2=
EXTT3=
EXTT4=
EXTT5=
EXTT6=
EXTT7=
EXTT8=
PLAYORDER=
